<svg xmlns="http://www.w3.org/2000/svg" viewBox="0 0 100 100">
  <defs>
    <linearGradient id="heartMain" x1="0%" y1="0%" x2="60%" y2="100%">
      <stop offset="0%" style="stop-color:#ff9ff3"/>
      <stop offset="50%" style="stop-color:#ff6ef7"/>
      <stop offset="100%" style="stop-color:#c44ddd"/>
    </linearGradient>
    <linearGradient id="highlight" x1="0%" y1="0%" x2="100%" y2="100%">
      <stop offset="0%" style="stop-color:#ffffff;stop-opacity:0.7"/>
      <stop offset="100%" style="stop-color:#ffffff;stop-opacity:0"/>
    </linearGradient>
    <filter id="shadow" x="-20%" y="-20%" width="140%" height="140%">
      <feDropShadow dx="0" dy="3" stdDeviation="4" flood-color="#6d28d9" flood-opacity="0.4"/>
    </filter>
  </defs>

  <!-- 하트 메인 -->
  <g transform="translate(50,52) scale(1.8)" filter="url(#shadow)">
    <path d="M0 18 C0 18 -22 6 -22 -7 C-22 -15 -16 -20 -9 -20 C-5 -20 -2 -18 0 -15 C2 -18 5 -20 9 -20 C16 -20 22 -15 22 -7 C22 6 0 18 0 18Z"
      fill="url(#heartMain)"/>
  </g>

  <!-- 하이라이트 -->
  <g transform="translate(50,52) scale(1.8)">
    <path d="M0 18 C0 18 -22 6 -22 -7 C-22 -15 -16 -20 -9 -20 C-5 -20 -2 -18 0 -15 C2 -18 5 -20 9 -20 C16 -20 22 -15 22 -7 C22 6 0 18 0 18Z"
      fill="url(#highlight)"/>
    <ellipse cx="-6" cy="-12" rx="5" ry="3.5" fill="white" opacity="0.35" transform="rotate(-20)"/>
  </g>
</svg>
