<?xml version="1.0" encoding="UTF-8"?>
<svg id="_레이어_1" data-name="레이어_1" xmlns="http://www.w3.org/2000/svg" version="1.1" xmlns:xlink="http://www.w3.org/1999/xlink" viewBox="0 0 100 100">
  <!-- Generator: Adobe Illustrator 29.7.0, SVG Export Plug-In . SVG Version: 2.1.1 Build 138)  -->
  <defs>
    <style>
      .st0 {
        fill: url(#_무제_그라디언트_5);
      }

      .st1 {
        opacity: .35;
      }

      .st1, .st2 {
        fill: #fff;
        isolation: isolate;
      }

      .st2 {
        opacity: .08;
      }

      .st3 {
        fill: url(#_무제_그라디언트_6);
      }

      .st4 {
        fill: url(#_무제_그라디언트_3);
      }
    </style>
    <linearGradient id="_무제_그라디언트_6" data-name="무제 그라디언트 6" x1="-4862.42" y1="6998.57" x2="-4861.42" y2="6997.57" gradientTransform="translate(408451 587887.88) scale(84 -84)" gradientUnits="userSpaceOnUse">
      <stop offset="0" stop-color="#a855f7"/>
      <stop offset=".5" stop-color="#7c3aed"/>
      <stop offset="1" stop-color="#6366f1"/>
    </linearGradient>
    <linearGradient id="_무제_그라디언트_5" data-name="무제 그라디언트 5" x1="-4823.53" y1="6922.06" x2="-4822.93" y2="6921.06" gradientTransform="translate(244106.29 302517.29) scale(50.6 -43.7)" gradientUnits="userSpaceOnUse">
      <stop offset="0" stop-color="#ff9ff3"/>
      <stop offset=".5" stop-color="#ff6ef7"/>
      <stop offset="1" stop-color="#c44ddd"/>
    </linearGradient>
    <linearGradient id="_무제_그라디언트_3" data-name="무제 그라디언트 3" x1="-4823.68" y1="6922" x2="-4822.68" y2="6921" gradientTransform="translate(244106.29 302517.29) scale(50.6 -43.7)" gradientUnits="userSpaceOnUse">
      <stop offset="0" stop-color="#fff" stop-opacity=".7"/>
      <stop offset="1" stop-color="#fff" stop-opacity="0"/>
    </linearGradient>
  </defs>
  <rect class="st3" x="8" y="8" width="84" height="84" rx="22" ry="22"/>
  <path class="st2" d="M30,8h40c12.15,0,22,9.4,22,21h0c0,11.6-9.85,21-22,21H30c-12.15,0-22-9.4-22-21h0c0-11.6,9.85-21,22-21Z"/>
  <path class="st0" d="M50,72.7s-25.3-13.8-25.3-28.75c0-9.2,6.9-14.95,14.95-14.95,4.6,0,8.05,2.3,10.35,5.75,2.3-3.45,5.75-5.75,10.35-5.75,8.05,0,14.95,5.75,14.95,14.95,0,14.95-25.3,28.75-25.3,28.75Z"/>
  <g>
    <path class="st4" d="M50,72.7s-25.3-13.8-25.3-28.75c0-9.2,6.9-14.95,14.95-14.95,4.6,0,8.05,2.3,10.35,5.75,2.3-3.45,5.75-5.75,10.35-5.75,8.05,0,14.95,5.75,14.95,14.95,0,14.95-25.3,28.75-25.3,28.75Z"/>
    <ellipse class="st1" cx="38.8" cy="41.39" rx="5.75" ry="4.03" transform="translate(-11.82 15.77) rotate(-20)"/>
  </g>
</svg>